<svg xmlns="http://www.w3.org/2000/svg" width="600" height="600" viewBox="-1 0 20.007 20.007"><g id="medical-insurance" transform="translate(-3 -2)"><path id="secondary" fill="#78B9EA" d="M19,5a1,1,0,0,1,1,1V9.54a12.311,12.311,0,0,1-7.612,11.381,1,1,0,0,1-.778,0A12.31,12.31,0,0,1,4,9.54V6A1,1,0,0,1,5,5a12.6,12.6,0,0,0,7-2A12.6,12.6,0,0,0,19,5Z"/><path id="primary" fill="none" stroke="#000" stroke-linecap="round" stroke-linejoin="round" stroke-width="1" d="M12,14V10m2,2H10m2-9A12.6,12.6,0,0,1,5,5,1,1,0,0,0,4,6V9.54a12.311,12.311,0,0,0,7.612,11.381,1,1,0,0,0,.778,0A12.31,12.31,0,0,0,20,9.54V6a1,1,0,0,0-1-1,12.6,12.6,0,0,1-7-2Z"/></g></svg>